:SAMPLES-PER-SECOND 30
:FULLY-SPECIFIED
:DEGREES
564
root  -2.05797 22.3716 -29.4922 -166.581 -31.3185 107.236
Spine  6.45771 24.6575 1.64989
Spine1  3.16169 -29.9122 -10.397
Neck  3.97569e-016 0 -2.38542e-015
Head  2.4554 -10.814 35.2933
R_Clavicle  1.13435 2.8063 5.38932
R_UpperArm  70.9564 5.22074 71.0552
R_Forearm  36.4384 6.17913 -5.18754
R_Hand  -2.4249 10.7049 -28.5966
L_Clavicle  -0.373933 12.1681 0.936977
L_UpperArm  -25.4533 13.3666 64.7057
L_Forearm  -12.4321 34.513 45.8722
L_Hand  0.131173 2.67297 1.72933
L_Thigh  -15.5238 -22.1417 23.5859
L_Calf  17.3177 0.0781167 -0.0618866
L_Foot  -2.45762 10.4591 -17.6136
L_Toe0  0.505156 0.0344461 -6.1361
R_Thigh  26.7209 -28.2781 -28.5707
R_Calf  23.6644 -13.2968 -46.9085
R_Foot  13.9841 32.2167 19.033
R_Toe0  19.1546 -8.36939 4.16924
565
root  -2.1747 20.8143 -28.7981 -150.329 -32.3489 100.199
Spine  6.14078 23.8255 2.61103
Spine1  2.15315 -28.7495 -7.77853
Neck  3.97569e-016 0 -2.38542e-015
Head  0.614647 -10.33 34.2699
R_Clavicle  0.95363 -1.1216 4.98449
R_UpperArm  72.7357 0.612002 76.2873
R_Forearm  31.7445 2.94094 -2.4731
R_Hand  -3.28216 12.5288 -32.8602
L_Clavicle  -0.35036 11.3287 0.799287
L_UpperArm  -29.9624 11.1456 61.8053
L_Forearm  -16.3183 29.6607 40.3635
L_Hand  -0.081989 5.56887 -0.617898
L_Thigh  -25.7117 -24.7025 30.6615
L_Calf  17.3362 0.512621 -3.31568
L_Foot  -2.76569 17.2439 -20.4359
L_Toe0  0.505156 0.0344461 -6.1361
R_Thigh  36.4141 -24.4628 -32.9468
R_Calf  17.6103 -14.1432 -51.1806
R_Foot  14.713 30.8084 25.7331
R_Toe0  16.1922 -10.3461 13.9193
566
root  -2.11913 19.45 -28.1285 -139.559 -31.6968 94.7123
Spine  6.75285 24.0385 3.85201
Spine1  2.04668 -26.7045 -5.80331
Neck  3.97569e-016 0 -2.38542e-015
Head  0.0957213 -10.6424 33.7579
R_Clavicle  0.90768 -2.73927 4.95295
R_UpperArm  70.4266 -2.14392 76.5553
R_Forearm  26.7185 -6.92153 5.76259
R_Hand  -3.44406 12.7987 -33.6802
L_Clavicle  -0.381085 10.746 1.69886
L_UpperArm  -34.4787 13.0025 61.5815
L_Forearm  -13.7402 26.524 35.4493
L_Hand  -0.178356 6.2087 -1.51203
L_Thigh  -34.9035 -25.2075 36.1965
L_Calf  15.2495 0.836541 -5.78231
L_Foot  -3.09626 21.2341 -22.0874
L_Toe0  0.505156 0.0344461 -6.1361
R_Thigh  41.3439 -20.1209 -33.9532
R_Calf  12.5097 -14.7976 -54.7991
R_Foot  15.6302 30.1271 31.7296
R_Toe0  12.2014 -9.98431 22.6392
567
root  -2.10156 18.4139 -27.4578 -132.421 -31.1232 89.7541
Spine  7.58098 23.5207 5.68339
Spine1  2.75974 -23.9477 -5.67912
Neck  3.97569e-016 0 -2.38542e-015
Head  0.0781973 -10.7681 33.5587
R_Clavicle  0.811594 -3.824 4.52516
R_UpperArm  65.4775 -2.77255 74.7023
R_Forearm  22.1632 -19.6885 17.262
R_Hand  -2.87409 11.6695 -30.9363
L_Clavicle  -0.423757 11.8713 2.45045
L_UpperArm  -35.2419 16.0984 65.0753
L_Forearm  -9.15796 25.809 33.9435
L_Hand  -0.334839 3.92912 -3.81659
L_Thigh  -41.096 -25.193 40.8672
L_Calf  18.4949 1.11242 -7.73263
L_Foot  -3.08665 22.8366 -22.2759
L_Toe0  0.505156 0.0344461 -6.1361
R_Thigh  42.4075 -17.5053 -32.5591
R_Calf  7.62272 -15.4858 -58.985
R_Foot  15.0596 28.4445 34.5631
R_Toe0  7.63742 -6.11159 25.4083
568
root  -2.16917 17.3651 -26.853 -128.883 -32.0942 85.1579
Spine  9.34486 22.2041 10.264
Spine1  3.93464 -22.5577 -6.47585
Neck  3.97569e-016 0 -2.38542e-015
Head  -1.33356 -10.8171 31.8435
R_Clavicle  0.749369 -6.12339 4.41006
R_UpperArm  61.11 -2.64854 72.3692
R_Forearm  20.8626 -30.4149 29.0024
R_Hand  -2.67278 10.5864 -30.2146
L_Clavicle  -0.437208 14.1777 2.32814
L_UpperArm  -33.6448 18.4654 69.9869
L_Forearm  -8.25408 26.895 36.3541
L_Hand  -0.45365 1.69457 -7.04824
L_Thigh  -45.6236 -22.67 45.5173
L_Calf  23.2307 1.42806 -9.91143
L_Foot  -3.92762 10.5055 -23.0739
L_Toe0  0.505156 0.0344461 -6.1361
R_Thigh  42.3983 -17.8589 -31.8464
R_Calf  4.31866 -16.2378 -64.271
R_Foot  13.7901 25.8062 38.1182
R_Toe0  5.08718 -2.60159 26.1603
569
root  -2.37163 16.2176 -26.245 -128.687 -34.7268 80.1667
Spine  11.8435 20.4343 17.3652
Spine1  5.29747 -23.9623 -6.56558
Neck  3.97569e-016 0 -2.38542e-015
Head  -4.38816 -11.248 28.2389
R_Clavicle  0.770227 -8.44209 4.94795
R_UpperArm  59.6027 -4.13457 69.5843
R_Forearm  22.8858 -36.7862 37.9643
R_Hand  -3.17192 10.4075 -32.7115
L_Clavicle  -0.4493 15.5537 2.54368
L_UpperArm  -33.1252 20.0452 72.969
L_Forearm  -12.8374 27.8221 39.9938
L_Hand  -0.492734 0.289242 -9.52481
L_Thigh  -48.8397 -17.4691 48.9453
L_Calf  21.4364 1.35928 -9.47592
L_Foot  -5.15857 -11.053 -23.9294
L_Toe0  0.505156 0.0344461 -6.1361
R_Thigh  43.3416 -20.7776 -30.6516
R_Calf  6.90851 -16.9524 -70.548
R_Foot  14.3507 25.1623 43.5882
R_Toe0  5.57613 -3.22709 28.1468
570
root  -2.75002 15.2966 -25.4267 -128.325 -37.6111 73.1588
Spine  13.0742 18.3933 24.1766
Spine1  6.16567 -26.5257 -6.14657
Neck  3.97569e-016 0 -2.38542e-015
Head  -7.48581 -12.2645 25.21
R_Clavicle  0.786017 -10.0493 5.44797
R_UpperArm  58.5886 -11.9743 70.1124
R_Forearm  34.7687 -32.3809 32.184
R_Hand  -4.87897 15.8448 -40.2704
L_Clavicle  -0.458677 15.2647 4.30535
L_UpperArm  -37.1986 20.5335 72.845
L_Forearm  -16.4654 27.4471 41.0962
L_Hand  -0.445484 -1.05373 -11.2024
L_Thigh  -49.6889 -13.6648 51.817
L_Calf  18.9323 0.871105 -5.85323
L_Foot  -5.25739 -16.6226 -22.8312
L_Toe0  0.505156 0.0344461 -6.1361
R_Thigh  44.8172 -24.4965 -25.0655
R_Calf  15.3774 -17.4751 -76.8811
R_Foot  18.3803 28.6274 47.9167
R_Toe0  10.3412 -7.51418 27.5592
571
root  -3.05292 14.7845 -24.4106 -124.284 -39.4034 63.8142
Spine  12.4004 17.26 28.5676
Spine1  5.83107 -27.6904 -5.95497
Neck  3.97569e-016 0 -2.38542e-015
Head  -9.49202 -13.9139 24.9031
R_Clavicle  0.759018 -11.4612 5.58808
R_UpperArm  55.8171 -31.8287 77.4569
R_Forearm  52.608 -3.72135 4.37688
R_Hand  -20.9272 35.6523 -72.9749
L_Clavicle  -0.489898 14.7425 6.53714
L_UpperArm  -45.9701 18.6138 70.3597
L_Forearm  -14.52 26.6614 38.0395
L_Hand  -0.437431 -1.71849 -12.9772
L_Thigh  -46.0361 -13.9744 54.3801
L_Calf  21.2584 0.0927174 -0.117219
L_Foot  -4.37556 -7.85695 -18.6727
L_Toe0  0.505156 0.0344461 -6.1361
R_Thigh  45.1012 -27.67 -16.0016
R_Calf  23.2599 -17.7204 -81.3343
R_Foot  23.5446 33.6908 49.2101
R_Toe0  13.6969 -10.4972 25.9631
572
root  -3.06711 14.5857 -23.3178 -117.304 -39.9645 53.6468
Spine  10.9012 17.2706 30.1524
Spine1  4.37815 -26.6358 -5.08039
Neck  3.97569e-016 0 -2.38542e-015
Head  -10.7325 -15.6348 26.4213
R_Clavicle  0.742625 -12.4743 5.74698
R_UpperArm  58.4707 -37.2396 72.2166
R_Forearm  52.197 4.90208 -0.582324
R_Hand  -35.4758 27.8661 -111.209
L_Clavicle  -0.498884 14.8099 7.60867
L_UpperArm  -52.9971 13.6884 66.3578
L_Forearm  -12.0314 25.4617 33.1941
L_Hand  -0.562355 -1.20084 -14.5922
L_Thigh  -38.3573 -16.6268 53.0469
L_Calf  20.2191 -1.18789 8.81238
L_Foot  -4.34228 -9.04786 -17.7611
L_Toe0  0.505156 0.0344461 -6.1361
R_Thigh  43.5513 -30.4419 -7.52573
R_Calf  26.5883 -17.7935 -83.2394
R_Foot  26.5074 36.8659 48.8307
R_Toe0  14.4699 -11.6924 25.3579
573
root  -2.74826 14.4504 -22.3356 -110.475 -39.8359 44.2002
Spine  8.88173 16.2996 29.2102
Spine1  2.47551 -23.6446 -2.83987
Neck  3.97569e-016 0 -2.38542e-015
Head  -12.0417 -15.4964 27.2498
R_Clavicle  0.801933 -12.365 6.37136
R_UpperArm  71.2548 -41.0941 62.5419
R_Forearm  48.0724 11.6538 -3.34804
R_Hand  -27.8361 17.5623 -117.145
L_Clavicle  -0.519248 14.4468 8.0687
L_UpperArm  -55.948 7.11533 61.2927
L_Forearm  -11.5102 22.0686 27.9068
L_Hand  -0.629994 -0.997584 -15.5411
L_Thigh  -30.9117 -16.7175 49.6771
L_Calf  16.0326 -1.89037 13.6371
L_Foot  -4.53719 -10.6659 -18.1239
L_Toe0  0.505156 0.0344461 -6.1361
R_Thigh  41.6609 -32.5455 -1.13788
R_Calf  29.5754 -17.7846 -83.0134
R_Foot  27.5271 38.1852 48.1752
R_Toe0  11.6605 -9.1706 26.5679
574
root  -2.17862 14.3896 -21.5346 -104.516 -39.0162 35.9003
Spine  5.71305 12.2958 26.3937
Spine1  0.759299 -17.8958 -0.467905
Neck  3.97569e-016 0 -2.38542e-015
Head  -14.1869 -11.9411 26.6553
R_Clavicle  0.972569 -10.8286 7.47322
R_UpperArm  91.8654 -43.7516 49.6175
R_Forearm  20.4912 20.3375 -12.8087
R_Hand  -33.5848 26.8132 -109.784
L_Clavicle  -0.609038 12.8345 8.80538
L_UpperArm  -59.3782 2.17718 56.2765
L_Forearm  -9.31155 15.1008 18.1487
L_Hand  -0.401024 -2.69312 -15.8793
L_Thigh  -23.1379 -15.0092 46.3263
L_Calf  8.72973 -1.48667 10.6398
L_Foot  -3.84164 -6.37775 -15.9562
L_Toe0  0.505156 0.0344461 -6.1361
R_Thigh  40.9716 -34.7112 4.01708
R_Calf  35.2399 -17.6876 -80.682
R_Foot  27.1026 38.6983 45.9235
R_Toe0  11.4404 -8.89677 26.2227
575
root  -1.45113 14.5133 -20.8476 -99.1328 -37.1087 29.8367
Spine  1.7295 5.35652 22.9258
Spine1  -0.488582 -7.94973 0.836004
Neck  3.97569e-016 0 -2.38542e-015
Head  -17.1845 -6.13012 26.2828
R_Clavicle  1.17943 -8.36218 8.1975
R_UpperArm  94.0426 -39.1902 44.7223
R_Forearm  10.1554 19.0113 -17.1203
R_Hand  -35.5513 28.2466 -111.322
L_Clavicle  -0.712954 10.3222 8.31863
L_UpperArm  -61.0366 0.835405 52.1692
L_Forearm  -4.84455 2.90123 3.3444
L_Hand  -0.0657061 -4.99347 -15.1941
L_Thigh  -13.0637 -13.4744 41.6522
L_Calf  1.96748 -0.602954 4.13758
L_Foot  -2.67395 -3.41024 -10.9905
L_Toe0  0.505156 0.0344461 -6.1361
R_Thigh  42.1707 -37.0232 6.85859
R_Calf  39.8542 -17.4337 -76.3365
R_Foot  24.6213 37.2682 42.8902
R_Toe0  11.3366 -8.57955 25.4
576
root  -0.658643 14.7789 -20.1987 -96.0222 -34.5167 27.6007
Spine  -1.92221 -2.33522 20.5249
Spine1  -1.35923 4.7644 1.18359
Neck  3.97569e-016 0 -2.38542e-015
Head  -19.3912 -1.20737 27.8462
R_Clavicle  1.1811 -6.18931 7.41287
R_UpperArm  92.273 -30.1311 38.7064
R_Forearm  6.37347 15.5729 -13.514
R_Hand  -36.6779 27.3577 -114.767
L_Clavicle  -0.600563 7.27479 4.99044
L_UpperArm  -58.7212 0.921473 47.4013
L_Forearm  3.09012 -10.0371 -11.8073
L_Hand  0.145015 -6.70435 -12.6628
L_Thigh  -2.65479 -9.76054 36.4677
L_Calf  -2.87298 0.701562 -5.3635
L_Foot  -0.584561 1.01021 -4.00109
L_Toe0  0.505156 0.0344461 -6.1361
R_Thigh  44.2904 -37.0632 7.49701
R_Calf  41.1294 -16.9395 -70.4587
R_Foot  21.132 34.0306 40.9136
R_Toe0  7.10814 -4.54637 26.3655
577
root  0.0951519 15.14 -19.5523 -97.7319 -31.485 29.6715
Spine  -4.47913 -7.49399 19.8108
Spine1  -2.34269 15.7946 0.693718
Neck  3.97569e-016 0 -2.38542e-015
Head  -18.7303 0.508072 31.4674
R_Clavicle  0.915025 -5.36463 5.42194
R_UpperArm  90.336 -17.6728 31.9658
R_Forearm  5.0737 10.2891 -7.39998
R_Hand  -36.6141 25.6183 -117.674
L_Clavicle  -0.154717 4.26138 0.410958
L_UpperArm  -51.4101 -1.11257 39.6206
L_Forearm  11.1686 -17.1142 -20.8413
L_Hand  0.206469 -7.72997 -9.96042
L_Thigh  6.44128 -0.867871 31.6671
L_Calf  -6.22563 2.08238 -15.6194
L_Foot  1.33982 4.00206 1.538
L_Toe0  0.505156 0.0344461 -6.1361
R_Thigh  44.5267 -32.4067 9.68136
R_Calf  41.5443 -16.1441 -63.5584
R_Foot  18.515 31.6415 38.6959
R_Toe0  5.1915 -2.80391 26.1168
